<svg xmlns="http://www.w3.org/2000/svg" viewBox="0 0 760 520"><rect x="80" y="378" width="600" height="28" rx="14" fill="#D7DDEA"/><circle cx="250" cy="195" r="75" fill="#FFDCEB"/><circle cx="510" cy="195" r="75" fill="#DCEEFF"/><path d="M190 380c4-111 35-166 94-166 61 0 88 58 92 166" fill="#A9D6FF"/><path d="M384 380c4-111 35-166 94-166 61 0 88 58 92 166" fill="#E9E1FF"/><circle cx="284" cy="178" r="45" fill="#F1C4A4"/><circle cx="478" cy="178" r="45" fill="#DDA77F"/><path d="M238 174c4-54 28-70 51-70 28 0 49 20 47 72-27-23-56-24-98-2Z" fill="#26324B"/><path d="M433 162c9-41 31-58 52-58 27 0 45 18 45 61-35-10-64-7-97-3Z" fill="#26324B"/><rect x="287" y="287" width="188" height="116" rx="12" fill="#fff" stroke="#A8B4CC" stroke-width="5"/><path d="M331 311h100M331 335h72M331 359h91" stroke="#A9D6FF" stroke-width="10" stroke-linecap="round"/></svg>